<svg id="svg" xmlns="http://www.w3.org/2000/svg" xmlns:xlink="http://www.w3.org/1999/xlink" width="400" height="245.8100558659218" viewBox="0, 0, 400,245.8100558659218"><g id="svgg"><path id="path0" d="M41.804 7.810 L 35.564 15.642 200.124 15.642 L 364.685 15.642 360.087 8.380 L 355.488 1.117 201.767 0.548 L 48.045 -0.022 41.804 7.810 M29.816 43.017 C 30.613 56.844,31.269 105.112,31.275 150.279 L 31.285 232.402 202.235 232.402 L 373.184 232.402 373.174 150.279 C 373.169 105.112,372.512 56.844,371.715 43.017 L 370.267 17.877 199.317 17.877 L 28.367 17.877 29.816 43.017 M370.773 139.106 L 370.597 222.346 365.216 211.173 C 360.095 200.541,359.808 197.618,359.295 150.838 L 358.755 101.676 358.104 147.666 L 357.454 193.656 344.962 192.621 C 332.691 191.603,332.497 191.679,333.940 196.910 C 334.968 200.635,334.792 201.228,333.355 198.883 C 332.226 197.039,330.066 190.251,328.556 183.799 C 326.332 174.292,324.900 172.018,321.006 171.808 C 317.228 171.604,317.037 171.330,320.112 170.527 C 329.356 168.111,324.164 163.195,313.860 164.607 C 305.843 165.706,303.839 165.343,304.363 162.888 C 304.729 161.177,303.520 159.777,301.676 159.777 C 299.832 159.777,298.623 161.177,298.989 162.888 C 299.513 165.343,297.509 165.706,289.492 164.607 C 279.188 163.195,273.996 168.111,283.240 170.527 C 286.442 171.363,286.316 171.596,282.545 171.808 C 278.921 172.012,277.313 174.567,274.999 183.799 C 271.884 196.228,266.982 207.154,269.485 196.089 L 270.876 189.944 256.667 189.671 C 203.749 188.655,117.147 190.683,115.677 192.973 C 112.727 197.568,113.745 191.021,117.304 182.503 C 119.719 176.723,120.043 172.942,118.476 168.822 C 115.740 161.624,113.442 161.376,115.222 168.471 C 115.960 171.410,115.476 174.486,114.148 175.307 C 112.570 176.282,111.732 173.698,111.732 167.862 C 111.732 162.945,110.726 158.301,109.497 157.542 C 108.268 156.782,107.176 149.432,107.070 141.209 C 106.905 128.327,106.581 127.185,104.728 132.961 C 103.545 136.648,103.129 146.201,103.803 154.190 C 104.943 167.695,104.782 168.401,101.515 164.246 C 97.679 159.368,98.204 166.943,102.985 185.475 C 105.549 195.411,105.527 196.648,102.793 196.648 C 101.564 196.648,100.559 195.140,100.559 193.296 C 100.559 185.566,87.865 189.407,83.945 198.324 C 81.920 202.933,80.921 204.190,81.726 201.117 C 84.761 189.530,85.274 179.256,82.891 177.783 C 81.361 176.837,80.351 178.619,80.190 182.550 C 79.747 193.380,75.723 173.429,74.020 151.955 L 72.514 132.961 70.622 145.928 C 69.581 153.060,69.413 164.122,70.248 170.509 C 71.681 181.470,71.563 181.872,68.133 177.654 C 64.191 172.805,64.192 172.447,68.067 198.883 C 68.917 204.682,68.765 205.272,67.478 201.163 C 66.449 197.881,63.957 195.531,61.363 195.400 C 58.954 195.278,54.700 195.006,51.909 194.796 L 46.835 194.413 46.995 128.492 L 47.156 62.570 180.002 62.570 C 284.772 62.570,312.856 63.160,312.883 65.363 C 312.909 67.475,313.374 67.436,314.790 65.204 C 317.775 60.496,348.580 62.473,348.593 67.373 C 348.601 70.097,351.092 71.263,358.147 71.842 C 367.579 72.616,367.682 72.547,366.907 65.922 L 366.123 59.218 205.410 59.218 C 107.140 59.218,44.696 60.030,44.695 61.308 C 44.694 62.458,42.430 65.971,39.665 69.114 L 34.637 74.828 39.661 70.591 L 44.685 66.353 44.130 134.294 C 43.598 199.469,43.373 202.644,38.597 212.291 L 33.618 222.346 33.569 139.106 L 33.520 55.866 202.235 55.866 L 370.950 55.866 370.773 139.106 M363.661 79.021 C 362.379 82.155,360.286 82.936,355.171 82.185 C 348.471 81.202,348.391 81.308,349.052 90.315 C 349.771 100.123,362.407 105.717,365.519 97.605 C 367.529 92.369,365.697 74.044,363.661 79.021 M361.453 86.457 C 359.302 87.019,355.782 87.019,353.631 86.457 C 351.480 85.895,353.240 85.435,357.542 85.435 C 361.844 85.435,363.603 85.895,361.453 86.457 M361.453 90.926 C 359.302 91.488,355.782 91.488,353.631 90.926 C 351.480 90.364,353.240 89.904,357.542 89.904 C 361.844 89.904,363.603 90.364,361.453 90.926 M361.453 95.395 C 359.302 95.957,355.782 95.957,353.631 95.395 C 351.480 94.833,353.240 94.373,357.542 94.373 C 361.844 94.373,363.603 94.833,361.453 95.395 M197.614 120.426 C 198.291 121.521,196.339 124.058,193.277 126.064 C 190.215 128.070,187.709 131.197,187.709 133.012 C 187.709 134.828,186.620 136.313,185.289 136.313 C 183.957 136.313,183.307 137.570,183.844 139.106 C 184.382 140.642,186.477 141.604,188.500 141.243 C 190.671 140.855,192.179 142.069,192.179 144.205 C 192.179 146.819,193.885 147.644,198.325 147.178 C 201.706 146.824,205.668 147.273,207.131 148.177 C 208.655 149.119,211.753 147.712,214.392 144.880 C 219.149 139.773,220.676 135.010,216.785 137.414 C 215.525 138.193,215.140 137.311,215.889 135.360 C 217.456 131.276,205.431 118.436,200.040 118.436 C 198.029 118.436,196.938 119.331,197.614 120.426 M152.690 130.632 C 144.574 134.162,140.198 140.841,142.118 146.765 C 143.108 149.820,142.897 150.080,141.272 147.806 C 139.988 146.009,138.559 145.660,137.762 146.949 C 135.243 151.025,145.416 157.410,155.475 158.067 C 163.363 158.581,165.363 157.980,165.363 155.094 C 165.363 152.797,166.586 151.947,168.715 152.763 C 174.784 155.092,172.442 145.160,165.363 138.547 C 157.574 131.272,157.291 130.294,162.570 128.915 C 165.292 128.203,165.462 127.841,163.128 127.721 C 161.285 127.627,156.588 128.936,152.690 130.632 M195.954 137.989 C 195.392 140.140,194.932 138.380,194.932 134.078 C 194.932 129.777,195.392 128.017,195.954 130.168 C 196.516 132.318,196.516 135.838,195.954 137.989 M205.781 135.196 L 207.494 128.492 207.099 134.996 C 206.860 138.927,205.347 141.693,203.273 141.990 C 200.555 142.379,200.082 140.796,200.994 134.369 L 202.146 126.257 203.107 134.078 L 204.068 141.899 205.781 135.196 M155.770 148.019 C 155.236 150.798,154.778 149.050,154.753 144.134 C 154.729 139.218,155.166 136.944,155.725 139.080 C 156.285 141.217,156.305 145.239,155.770 148.019 M151.261 149.162 C 150.699 151.313,150.239 149.553,150.239 145.251 C 150.239 140.950,150.699 139.190,151.261 141.341 C 151.823 143.492,151.823 147.011,151.261 149.162 M61.913 154.306 C 62.613 159.773,63.549 164.665,63.995 165.177 C 65.818 167.273,64.578 150.589,62.689 147.602 C 61.365 145.509,61.091 147.876,61.913 154.306 M233.751 148.401 C 234.484 150.310,233.085 152.147,230.201 153.062 C 225.953 154.410,221.229 162.133,221.229 167.729 C 221.229 173.142,231.368 167.892,232.697 161.791 L 234.108 155.307 234.372 161.321 C 234.518 164.628,233.631 167.955,232.402 168.715 C 227.956 171.463,230.336 173.833,238.547 174.835 C 245.157 175.641,248.035 174.767,252.171 170.699 L 257.414 165.541 252.606 158.788 C 244.889 147.951,230.546 140.049,233.751 148.401 M297.207 153.673 C 295.363 155.814,292.430 157.561,290.689 157.554 C 288.948 157.547,287.104 158.799,286.592 160.335 C 285.019 165.054,292.883 163.429,297.407 158.101 L 301.676 153.073 305.945 158.101 C 310.464 163.423,318.367 165.063,316.714 160.335 C 316.177 158.799,313.831 157.821,311.500 158.161 C 307.434 158.756,307.426 158.652,311.307 155.583 C 313.870 153.556,314.484 151.848,312.983 150.921 C 311.680 150.116,310.615 150.522,310.615 151.823 C 310.615 153.125,309.106 154.190,307.263 154.190 C 305.419 154.190,303.911 153.184,303.911 151.955 C 303.911 148.567,300.949 149.326,297.207 153.673 M241.532 157.424 C 242.656 156.729,243.459 159.488,243.316 163.555 C 243.143 168.497,242.672 169.467,241.898 166.480 L 240.738 162.011 238.962 166.480 C 237.637 169.814,237.191 168.679,237.205 162.011 C 237.216 157.095,237.734 154.336,238.356 155.880 C 238.979 157.424,240.408 158.119,241.532 157.424 M250.944 165.192 C 249.964 165.929,248.408 167.443,247.486 168.555 C 246.564 169.667,245.810 167.773,245.810 164.345 C 245.810 158.973,246.288 158.508,249.268 160.982 C 251.170 162.560,251.924 164.455,250.944 165.192 M308.939 173.684 C 304.944 174.179,298.408 174.179,294.413 173.684 C 290.419 173.188,293.687 172.782,301.676 172.782 C 309.665 172.782,312.933 173.188,308.939 173.684 M315.515 189.385 C 321.800 196.703,322.586 201.930,316.792 197.871 C 311.172 193.935,294.576 193.272,288.121 196.727 C 282.954 199.492,282.525 196.914,287.156 190.930 C 289.093 188.428,290.031 188.011,289.373 189.944 C 288.435 192.699,290.844 193.296,302.891 193.296 C 317.204 193.296,317.436 193.204,312.718 189.385 C 310.060 187.235,308.846 185.475,310.021 185.475 C 311.195 185.475,313.668 187.235,315.515 189.385 M368.715 227.933 C 368.715 229.403,311.732 230.168,202.235 230.168 C 92.737 230.168,35.754 229.403,35.754 227.933 C 35.754 226.463,92.737 225.698,202.235 225.698 C 311.732 225.698,368.715 226.463,368.715 227.933 " stroke="none" fill="#000000" fill-rule="evenodd"></path></g></svg>