<?xml version="1.0" standalone="no"?>
<!DOCTYPE svg PUBLIC "-//W3C//DTD SVG 20010904//EN"
 "http://www.w3.org/TR/2001/REC-SVG-20010904/DTD/svg10.dtd">
<svg version="1.0" xmlns="http://www.w3.org/2000/svg"
 width="473.000000pt" height="391.000000pt" viewBox="0 0 473.000000 391.000000"
 preserveAspectRatio="xMidYMid meet">

<g transform="translate(0.000000,391.000000) scale(0.100000,-0.100000)"
fill="#000000" stroke="none">
<path d="M158 3501 c-20 -4 -48 -15 -63 -25 -58 -38 -55 40 -55 -1521 0 -1404
0 -1437 20 -1474 39 -78 -173 -71 2301 -71 l2212 0 42 25 c81 47 75 -82 75
1527 l0 1433 -24 36 c-14 20 -42 45 -63 55 -37 18 -101 19 -2223 20 -1202 1
-2201 -1 -2222 -5z m4302 -1531 l0 -1220 -2100 0 -2100 0 0 1213 c0 668 3
1217 7 1220 3 4 948 7 2100 7 l2093 0 0 -1220z"/>
<path d="M1800 2747 c-15 -7 -26 -23 -28 -37 -5 -48 10 -55 121 -60 l103 -5
-186 -213 c-102 -117 -197 -224 -211 -238 l-25 -25 -208 166 c-158 126 -214
165 -232 163 -34 -4 -574 -512 -575 -541 -3 -50 8 -67 43 -67 10 0 129 105
264 233 135 127 253 237 263 244 13 10 30 1 106 -61 347 -279 342 -276 372
-255 11 8 101 106 200 219 99 113 199 225 221 250 l41 45 1 -91 c0 -104 11
-127 55 -122 48 5 53 30 49 211 -4 127 -8 165 -20 177 -20 21 -316 27 -354 7z"/>
<path d="M3430 2384 c1 -302 4 -365 15 -360 8 3 138 98 289 211 235 177 274
210 266 225 -5 9 -42 48 -83 86 -118 110 -320 204 -438 204 l-50 0 1 -366z"/>
<path d="M3173 2671 c-239 -69 -435 -270 -504 -516 -31 -111 -31 -269 -1 -378
107 -381 478 -610 859 -531 83 17 203 66 203 83 0 6 -40 72 -89 148 -49 76
-138 214 -198 308 l-108 170 -2 365 -3 365 -47 2 c-27 1 -76 -6 -110 -16z"/>
<path d="M3765 2139 c-159 -120 -289 -223 -287 -229 1 -6 77 -127 169 -268 91
-141 173 -269 182 -284 9 -16 21 -28 26 -28 6 0 34 21 63 46 216 189 310 511
231 795 -20 71 -75 190 -88 188 -3 0 -136 -99 -296 -220z"/>
<path d="M1900 2143 c-8 -3 -18 -11 -22 -17 -4 -6 -8 -205 -8 -443 0 -417 1
-433 19 -443 28 -15 254 -13 269 2 15 15 17 864 2 888 -7 12 -35 15 -127 17
-65 1 -125 -1 -133 -4z"/>
<path d="M1002 1978 c-9 -9 -12 -105 -12 -370 0 -343 1 -358 19 -368 28 -15
254 -13 269 2 17 17 17 719 0 736 -8 8 -53 12 -138 12 -85 0 -130 -4 -138 -12z"/>
<path d="M1448 1829 c-17 -9 -18 -34 -18 -294 0 -271 1 -285 19 -295 31 -16
243 -13 267 4 18 14 19 29 19 291 0 262 -1 277 -19 291 -24 17 -240 20 -268 3z"/>
<path d="M566 1674 c-14 -13 -16 -47 -16 -219 0 -192 1 -205 19 -215 11 -5 73
-10 139 -10 99 0 122 3 133 17 11 12 15 61 16 195 2 173 -4 224 -30 240 -7 4
-65 8 -129 8 -93 0 -120 -3 -132 -16z"/>
</g>
</svg>
