<?xml version="1.0" standalone="no"?>
<!DOCTYPE svg PUBLIC "-//W3C//DTD SVG 20010904//EN"
 "http://www.w3.org/TR/2001/REC-SVG-20010904/DTD/svg10.dtd">
<svg version="1.0" xmlns="http://www.w3.org/2000/svg"
 width="1078.000000pt" height="578.000000pt" viewBox="0 0 1078.000000 578.000000"
 preserveAspectRatio="xMidYMid meet">

<g transform="translate(0.000000,578.000000) scale(0.100000,-0.100000)"
fill="#000000" stroke="none">
<path d="M10617 5639 c-26 -40 -52 -90 -58 -111 -11 -44 -47 -108 -60 -108 -4
0 -9 30 -11 68 l-3 67 -18 -75 c-26 -109 -55 -191 -77 -220 l-20 -25 0 105 c0
105 -6 150 -20 150 -11 0 -28 -68 -35 -140 -16 -161 -36 -228 -79 -262 -52
-42 -59 -5 -25 145 19 87 19 157 -1 157 -15 0 -40 -92 -65 -240 -13 -80 -29
-161 -35 -180 -14 -51 -67 -130 -86 -130 -13 0 -15 9 -9 68 4 37 13 98 21 135
8 38 14 98 14 133 l0 65 -29 -20 c-45 -32 -70 -106 -92 -273 -12 -91 -28 -170
-41 -200 -20 -46 -58 -88 -81 -88 -13 0 -3 166 18 280 8 47 15 112 15 145 l-1
60 -27 -32 c-39 -45 -60 -109 -78 -242 -38 -284 -64 -361 -135 -408 -22 -14
-42 -24 -45 -21 -2 3 6 61 20 129 39 196 58 409 36 409 -20 0 -79 -62 -94
-100 -24 -61 -33 -111 -51 -280 -19 -180 -28 -227 -55 -281 -22 -42 -49 -64
-94 -75 -24 -6 -27 -4 -23 12 3 11 20 91 37 179 32 164 43 321 27 399 l-8 38
-31 -28 c-66 -63 -88 -135 -123 -394 -31 -225 -52 -296 -105 -344 -42 -38 -70
-46 -70 -20 0 8 11 83 24 167 42 258 59 477 38 477 -18 0 -82 -52 -101 -84
-34 -54 -58 -169 -70 -331 -22 -281 -53 -375 -141 -420 -73 -37 -70 -50 -33
197 23 152 35 280 40 402 6 177 6 178 -14 168 -33 -18 -84 -83 -108 -136 -32
-74 -52 -170 -70 -346 -21 -208 -40 -303 -76 -378 -34 -70 -96 -124 -162 -140
-34 -9 -37 -8 -32 7 13 41 64 283 79 371 31 191 47 490 26 490 -6 0 -31 -19
-55 -42 -89 -81 -155 -262 -189 -518 -31 -234 -58 -425 -60 -426 0 -1 -34 -16
-75 -34 -79 -34 -128 -35 -118 -2 81 273 124 592 115 857 l-3 99 -51 -52 c-29
-29 -68 -83 -87 -120 -68 -128 -93 -247 -147 -700 -12 -96 -23 -179 -26 -187
-13 -34 -214 -109 -214 -81 0 4 9 42 20 85 21 82 53 270 70 411 14 116 40 473
40 540 l-1 55 -54 -57 c-65 -69 -119 -163 -156 -272 -50 -144 -74 -296 -103
-645 -16 -197 -13 -190 -110 -240 -54 -29 -116 -41 -116 -23 0 4 7 42 15 85
24 124 53 360 80 649 14 147 28 295 32 330 l6 62 -42 -34 c-133 -107 -217
-305 -255 -600 -15 -116 -35 -422 -36 -533 0 -36 -4 -49 -17 -53 -10 -3 -61
-25 -113 -50 -103 -48 -147 -56 -135 -26 70 173 93 323 120 792 8 146 18 292
21 324 8 67 9 67 -65 8 -24 -20 -65 -69 -92 -109 -119 -183 -179 -452 -201
-910 l-12 -242 -30 -11 c-17 -6 -57 -28 -91 -49 -55 -36 -133 -66 -143 -56 -2
2 3 25 12 52 61 189 77 348 83 805 3 219 2 410 -1 424 l-7 27 -41 -39 c-217
-210 -322 -624 -289 -1145 7 -100 14 -200 17 -223 6 -40 5 -41 -37 -63 -24
-12 -70 -39 -103 -60 -47 -30 -68 -37 -110 -38 -59 0 -58 -3 -22 101 30 83 50
195 65 354 11 113 34 981 26 988 -9 9 -98 -75 -141 -131 -91 -122 -155 -289
-194 -512 -32 -181 -41 -303 -47 -667 l-6 -347 -50 -33 c-118 -79 -152 -98
-172 -98 -21 0 -21 1 7 83 47 141 61 250 61 467 -1 107 -9 292 -19 410 -9 118
-18 315 -18 437 -1 123 -3 223 -6 223 -3 0 -29 -16 -58 -35 -139 -94 -235
-301 -285 -615 -18 -115 -21 -179 -21 -435 -1 -295 5 -380 41 -629 l16 -110
-101 -98 c-99 -97 -178 -148 -228 -148 l-21 0 18 78 c44 183 54 286 54 567 -1
192 -6 313 -18 420 -18 150 -102 738 -113 785 l-6 25 -30 -35 c-146 -171 -233
-412 -279 -775 -19 -147 -16 -593 5 -785 21 -191 49 -385 74 -508 l19 -92
-126 -132 c-69 -73 -227 -231 -350 -350 -311 -302 -480 -486 -673 -729 -79
-99 -79 -99 131 -99 l179 0 84 92 c120 132 219 250 428 513 101 127 219 273
264 325 99 117 286 320 295 320 4 0 83 -48 177 -106 597 -375 902 -499 1308
-535 126 -11 320 0 438 24 l57 12 -247 160 c-338 218 -493 311 -658 394 -277
138 -493 212 -742 255 -46 8 -85 16 -88 18 -8 9 252 255 298 282 l47 27 131
-110 c435 -368 756 -543 1095 -596 123 -20 340 -16 452 6 l63 13 -119 62
c-136 71 -203 115 -431 284 -421 312 -603 398 -952 455 -21 3 -38 9 -38 13 0
25 101 129 149 154 105 55 203 33 367 -82 548 -382 724 -479 969 -532 70 -15
322 -17 346 -3 13 8 -33 49 -238 210 -139 110 -315 242 -391 293 -162 110
-403 233 -559 286 -62 21 -113 40 -113 42 0 12 175 132 234 160 l69 34 46 -37
c25 -21 103 -85 172 -144 300 -253 459 -353 672 -424 125 -42 262 -65 386 -65
94 0 94 0 76 20 -30 34 -228 184 -440 336 -127 90 -227 170 -274 219 -80 82
-109 100 -216 135 -87 28 -147 61 -168 94 -16 24 -16 26 13 46 16 12 67 34
112 50 46 15 91 31 100 35 12 5 63 -38 200 -172 260 -252 406 -358 583 -422
111 -40 189 -53 309 -49 l98 3 -68 47 c-74 51 -175 135 -386 321 -173 153
-287 234 -425 303 -62 31 -110 60 -107 65 10 17 95 61 179 94 l85 34 187 -191
c259 -262 371 -349 534 -414 64 -25 239 -67 247 -59 12 12 -127 177 -267 316
-144 143 -310 284 -454 386 l-58 41 58 22 c36 14 81 23 119 23 103 1 154 -31
324 -206 180 -185 246 -232 407 -288 77 -27 276 -80 281 -74 14 14 -159 217
-268 314 -93 84 -257 209 -393 300 -71 48 -88 71 -51 71 8 0 41 11 74 25 96
40 112 36 239 -55 61 -44 160 -115 219 -158 124 -90 256 -161 357 -192 79 -24
218 -37 254 -23 22 9 15 16 -110 115 -174 136 -331 246 -502 352 -135 83 -138
85 -115 100 76 50 162 64 249 42 79 -21 121 -45 275 -157 213 -155 341 -208
467 -194 111 12 112 9 -52 139 -231 184 -367 266 -513 312 -56 17 -57 18 -40
37 31 36 112 67 174 67 78 0 139 -25 303 -125 165 -100 262 -143 348 -153 62
-7 177 1 198 14 19 11 -312 212 -535 326 l-140 71 30 23 c47 39 89 54 143 54
70 0 137 -26 283 -107 148 -83 204 -108 281 -122 60 -11 129 -3 181 20 l27 13
-53 34 c-127 81 -419 212 -540 242 -27 7 -48 18 -48 24 0 25 62 85 104 101 62
24 115 10 301 -74 82 -38 168 -75 190 -82 62 -20 162 -16 215 8 45 20 45 21
20 31 -14 5 -101 44 -194 86 -92 42 -211 90 -264 108 -54 17 -99 33 -101 34
-2 2 8 22 22 44 64 95 140 98 382 15 157 -55 177 -59 260 -60 70 0 98 4 124
19 l34 18 -24 19 c-36 29 -134 56 -245 69 -136 15 -207 36 -250 74 l-37 32 36
31 c58 51 125 54 387 18 65 -9 137 -13 165 -10 53 7 135 41 135 56 0 5 -2 9
-5 9 -2 0 -89 13 -192 30 -176 28 -288 52 -300 64 -11 11 27 54 64 72 32 15
71 19 253 24 198 6 218 8 259 29 37 19 42 25 28 32 -9 5 -104 12 -212 16 -107
3 -195 9 -195 13 0 18 55 63 103 85 28 13 109 37 179 54 70 17 142 36 160 44
39 16 98 64 98 79 0 18 -103 0 -192 -32 -76 -28 -178 -41 -178 -22 0 17 40 65
73 87 19 14 84 41 143 61 132 44 151 53 189 94 l30 33 -42 -6 c-23 -3 -70 -22
-103 -42 -66 -40 -122 -51 -127 -25 -6 25 60 94 157 165 89 65 125 99 53 50
-53 -35 -73 -33 -73 8 1 36 8 51 66 127 50 66 58 90 41 114 -12 17 -18 12 -60
-55z"/>
<path d="M1510 4534 c-775 -52 -1332 -234 -1478 -484 l-27 -45 0 -365 c0 -410
-4 -389 78 -477 176 -191 615 -335 1217 -400 227 -25 786 -24 1010 1 597 66
1033 210 1207 399 82 88 78 67 78 477 l0 365 -27 47 c-129 219 -606 395 -1253
463 -141 15 -676 28 -805 19z"/>
<path d="M33 2843 l-28 -48 0 -360 c0 -404 -3 -384 78 -472 176 -191 615 -335
1217 -400 227 -25 786 -24 1010 1 597 66 1033 210 1207 399 80 87 78 71 81
447 3 348 1 381 -39 447 l-20 32 -42 -41 c-196 -190 -658 -333 -1257 -390
-174 -16 -715 -16 -885 0 -322 32 -593 84 -815 159 -210 70 -349 144 -437 233
l-41 42 -29 -49z"/>
<path d="M33 1643 l-28 -48 0 -360 c0 -404 -3 -384 78 -472 176 -191 616 -335
1217 -400 232 -25 778 -25 1005 0 605 68 1037 210 1212 400 81 88 78 68 78
472 l0 360 -28 47 -28 47 -42 -40 c-196 -191 -657 -334 -1257 -391 -174 -16
-715 -16 -885 0 -603 59 -1063 202 -1252 391 l-42 42 -28 -48z"/>
</g>
</svg>
