<?xml version="1.0" standalone="no"?>
<!DOCTYPE svg PUBLIC "-//W3C//DTD SVG 20010904//EN"
 "http://www.w3.org/TR/2001/REC-SVG-20010904/DTD/svg10.dtd">
<svg version="1.0" xmlns="http://www.w3.org/2000/svg"
 width="910.000000pt" height="1173.000000pt" viewBox="0 0 910.000000 1173.000000"
 preserveAspectRatio="xMidYMid meet">

<g transform="translate(0.000000,1173.000000) scale(0.100000,-0.100000)"
fill="#000000" stroke="none">
<path d="M3942 11713 c-29 -59 -37 -125 -37 -328 0 -196 2 -217 27 -318 44
-173 91 -307 238 -682 207 -527 230 -627 230 -1006 0 -374 14 -436 220 -939
62 -151 115 -293 118 -316 5 -44 -28 -230 -59 -336 -27 -93 -91 -216 -135
-261 -46 -47 -128 -89 -294 -152 -69 -26 -147 -59 -174 -72 l-48 -25 -47 33
c-121 85 -212 169 -541 500 -195 196 -392 385 -438 421 -159 125 -338 207
-598 273 -169 44 -231 51 -288 35 -68 -19 -91 -49 -90 -118 1 -77 32 -147 209
-472 163 -299 220 -422 266 -572 27 -89 31 -120 33 -223 1 -93 -3 -133 -17
-176 -18 -55 -18 -57 0 -90 13 -26 18 -54 17 -114 -2 -133 -56 -285 -231 -645
-164 -337 -203 -432 -223 -541 -13 -72 -2 -118 37 -149 34 -27 128 -27 234 0
44 12 126 27 182 36 400 59 665 193 1183 601 225 177 244 189 312 204 156 34
341 -9 479 -111 37 -27 41 -33 33 -58 -101 -318 -140 -505 -175 -832 -11 -97
-15 -265 -15 -600 0 -412 3 -500 25 -760 47 -552 27 -930 -71 -1330 -90 -368
-255 -694 -472 -937 -141 -156 -302 -287 -442 -358 -102 -51 -194 -119 -275
-200 -92 -92 -126 -146 -109 -173 25 -40 78 -21 251 92 54 35 152 91 218 126
567 297 770 419 1057 640 144 111 385 347 482 472 43 56 75 88 87 88 27 0 148
118 243 236 113 141 312 469 548 903 375 688 574 911 900 1005 87 25 268 59
276 52 8 -8 -60 -321 -99 -456 -71 -247 -144 -421 -344 -819 -164 -328 -198
-417 -330 -871 -112 -387 -169 -550 -250 -710 -150 -300 -335 -566 -640 -920
-171 -197 -264 -317 -318 -405 -55 -90 -133 -295 -112 -295 16 0 243 211 432
402 354 357 467 498 663 828 247 417 556 976 762 1377 23 45 44 80 46 78 4 -3
-10 -69 -89 -425 -73 -328 -101 -434 -169 -635 -122 -356 -268 -701 -395 -930
-93 -167 -198 -443 -229 -600 -21 -112 -23 -148 -8 -153 40 -13 240 282 435
643 128 236 168 333 322 780 91 264 127 365 275 765 450 1220 600 1709 695
2265 14 83 28 157 31 166 2 8 25 25 52 38 71 35 173 106 263 184 139 120 256
269 487 617 118 179 245 366 282 415 177 241 244 365 262 492 22 151 -22 225
-206 352 -244 169 -410 338 -774 790 -263 326 -258 321 -742 688 -333 253
-433 337 -590 493 -69 69 -219 208 -335 310 -115 102 -249 224 -297 272 -134
135 -270 313 -314 416 -191 432 -467 807 -936 1267 -210 207 -366 346 -575
512 -151 120 -349 263 -364 263 -5 0 -12 -8 -17 -17z"/>
<path d="M1510 5324 c-775 -52 -1332 -234 -1478 -484 l-27 -45 0 -365 c0 -410
-4 -389 78 -477 176 -191 615 -335 1217 -400 227 -25 786 -24 1010 1 597 66
1033 210 1207 399 82 88 78 67 78 477 l0 365 -27 47 c-129 219 -606 395 -1253
463 -141 15 -676 28 -805 19z"/>
<path d="M33 3633 l-28 -48 0 -360 c0 -404 -3 -384 78 -472 176 -191 615 -335
1217 -400 227 -25 786 -24 1010 1 597 66 1033 210 1207 399 80 87 78 71 81
447 3 348 1 381 -39 447 l-20 32 -42 -41 c-196 -190 -658 -333 -1257 -390
-174 -16 -715 -16 -885 0 -322 32 -593 84 -815 159 -210 70 -349 144 -437 233
l-41 42 -29 -49z"/>
<path d="M33 2433 l-28 -48 0 -360 c0 -404 -3 -384 78 -472 176 -191 616 -335
1217 -400 232 -25 778 -25 1005 0 605 68 1037 210 1212 400 81 88 78 68 78
472 l0 360 -28 47 -28 47 -42 -40 c-196 -191 -657 -334 -1257 -391 -174 -16
-715 -16 -885 0 -603 59 -1063 202 -1252 391 l-42 42 -28 -48z"/>
</g>
</svg>
