<svg id="svg" xmlns="http://www.w3.org/2000/svg" xmlns:xlink="http://www.w3.org/1999/xlink" width="400" height="250.31289111389236" viewBox="0, 0, 400,250.31289111389236"><g id="svgg"><path id="path0" d="M262.078 3.822 C 237.045 5.754,212.541 16.061,186.733 35.513 C 174.920 44.418,171.393 46.795,162.954 51.542 C 141.958 63.352,134.095 72.860,136.147 83.956 C 136.435 85.516,136.671 86.952,136.671 87.148 C 136.671 87.343,130.645 87.607,123.279 87.734 C 104.523 88.058,99.573 89.554,92.518 97.033 C 81.241 108.988,84.920 119.461,101.670 123.080 L 105.882 123.990 104.193 124.869 C 101.971 126.024,96.245 131.797,94.375 134.767 C 93.156 136.703,92.406 137.299,90.127 138.143 C 72.698 144.597,54.150 167.422,50.030 187.484 C 48.796 193.495,47.243 194.788,29.036 204.968 C 1.555 220.333,-3.896 228.267,6.405 237.902 C 12.002 243.138,22.876 244.557,38.048 242.031 C 40.711 241.587,48.421 241.051,55.569 240.813 C 62.591 240.579,69.217 240.122,70.294 239.797 C 71.766 239.354,73.405 239.343,76.888 239.754 C 83.721 240.560,87.827 240.426,92.163 239.256 C 95.950 238.234,96.199 238.229,103.711 239.007 C 119.473 240.639,128.134 239.325,131.286 234.824 C 131.922 233.916,132.327 233.894,139.445 234.381 C 156.659 235.557,167.360 233.321,174.058 227.148 L 176.316 225.065 176.140 221.294 C 175.922 216.647,174.241 212.912,168.259 203.791 C 163.388 196.362,163.381 196.337,164.094 189.987 C 164.841 183.341,166.392 178.194,171.713 164.706 C 174.157 158.511,176.549 152.022,177.029 150.287 L 177.901 147.131 183.694 144.174 C 192.259 139.800,198.547 135.965,202.616 132.633 L 206.232 129.670 220.138 129.647 C 234.334 129.624,264.036 128.957,277.670 128.355 L 285.252 128.021 284.293 131.970 C 283.655 134.599,283.360 137.461,283.410 140.527 L 283.486 145.134 280.381 148.523 C 268.980 160.965,267.727 171.302,277.172 175.003 L 279.249 175.818 277.405 178.450 C 276.391 179.898,275.143 182.010,274.633 183.142 C 273.822 184.940,273.381 185.296,271.145 185.952 C 257.063 190.084,239.126 215.149,244.282 223.492 C 246.833 227.619,251.981 229.212,263.830 229.539 C 302.080 230.594,324.649 230.028,332.299 227.821 C 333.478 227.481,336.488 227.681,343.063 228.536 C 378.905 233.199,396.090 230.420,395.973 219.981 C 395.917 215.007,385.925 198.061,380.456 193.666 C 378.880 192.400,378.551 191.855,378.788 190.909 C 379.315 188.809,378.487 186.362,376.198 183.253 C 374.966 181.578,373.519 179.057,372.985 177.650 C 371.716 174.310,369.891 171.744,367.762 170.304 L 366.047 169.144 369.679 165.548 C 377.800 157.510,376.629 149.670,366.627 145.114 C 363.953 143.896,363.462 143.457,362.942 141.817 C 361.694 137.883,360.092 135.813,357.197 134.396 C 355.682 133.655,354.443 132.733,354.443 132.346 C 354.443 131.102,351.539 125.191,349.199 121.670 L 346.925 118.251 347.969 115.821 C 354.346 100.971,335.228 80.785,309.136 74.821 C 306.934 74.317,305.071 73.868,304.997 73.823 C 304.924 73.778,305.313 72.750,305.862 71.539 C 307.805 67.257,307.222 62.828,303.366 52.566 L 301.202 46.809 301.120 35.294 C 301.014 20.509,299.544 15.462,293.851 10.343 C 289.003 5.984,273.990 2.903,262.078 3.822 " stroke="none" fill="#000000" fill-rule="evenodd"></path></g></svg>