<svg id="svg" xmlns="http://www.w3.org/2000/svg" xmlns:xlink="http://www.w3.org/1999/xlink" width="400" height="433.3333333333333" viewBox="0, 0, 400,433.3333333333333"><g id="svgg"><path id="path0" d="M51.333 18.612 C 45.237 19.858,39.961 24.234,36.801 30.667 L 35.000 34.333 34.827 64.167 L 34.654 94.000 119.352 94.000 L 204.050 94.000 203.859 63.167 L 203.667 32.333 201.701 28.784 C 199.505 24.820,196.351 22.034,191.553 19.819 L 188.333 18.333 121.000 18.234 C 83.967 18.180,52.617 18.350,51.333 18.612 M285.645 18.982 C 259.164 24.747,251.849 59.624,273.970 74.647 C 295.071 88.976,322.667 74.631,322.667 49.333 C 322.667 29.495,304.765 14.819,285.645 18.982 M357.506 66.142 C 345.419 67.913,335.905 79.142,335.922 91.615 C 335.953 113.845,362.574 126.080,378.913 111.374 C 398.383 93.850,383.469 62.338,357.506 66.142 M28.550 103.600 C 14.647 108.565,13.971 128.666,27.517 134.316 C 30.492 135.557,206.349 135.905,210.626 134.678 C 225.357 130.454,224.955 107.476,210.078 103.344 C 206.120 102.244,31.657 102.490,28.550 103.600 M293.953 111.578 C 272.100 117.471,267.303 147.166,286.188 159.647 C 297.021 166.806,313.213 164.638,320.883 155.000 C 337.370 134.281,319.087 104.801,293.953 111.578 M26.953 146.254 C 13.691 152.429,15.500 174.133,29.509 176.935 C 33.040 177.641,208.135 177.381,210.710 176.666 C 224.133 172.937,225.255 152.249,212.361 146.245 L 209.000 144.680 119.667 144.680 L 30.333 144.680 26.953 146.254 M334.169 168.943 C 311.422 176.294,309.191 208.079,330.689 218.538 C 354.514 230.130,378.050 203.869,364.909 180.357 C 359.659 170.964,344.888 165.479,334.169 168.943 M30.478 186.721 C 17.079 189.912,13.243 205.654,23.550 215.155 C 28.342 219.571,23.432 219.369,121.107 219.176 L 210.333 219.000 213.552 217.108 C 224.754 210.524,224.095 194.057,212.379 187.785 L 209.667 186.333 121.333 186.227 C 70.820 186.166,31.920 186.378,30.478 186.721 M285.083 227.718 C 271.495 232.057,264.510 247.194,270.272 259.815 C 281.126 283.592,316.487 275.338,315.175 249.333 C 314.393 233.824,299.488 223.117,285.083 227.718 M34.940 228.249 C 33.722 231.425,35.136 349.853,36.462 355.675 C 54.583 435.222,159.821 449.452,195.404 377.167 L 197.620 372.667 221.476 372.667 L 245.333 372.667 245.333 354.667 L 245.333 336.667 224.662 336.667 L 203.990 336.667 204.020 284.167 C 204.036 255.292,204.039 230.692,204.025 229.500 L 204.000 227.333 196.333 227.333 L 188.667 227.333 188.667 282.000 L 188.667 336.667 119.667 336.667 L 50.667 336.667 50.667 282.000 L 50.667 227.333 42.979 227.333 C 37.077 227.333,35.210 227.546,34.940 228.249 M321.901 291.369 C 311.521 293.854,305.739 305.605,310.372 314.797 C 318.453 330.828,342.000 325.519,342.000 307.667 C 342.000 297.051,332.008 288.948,321.901 291.369 M277.526 327.390 C 266.944 332.628,265.112 346.571,274.005 354.183 C 284.365 363.051,300.347 355.646,300.299 342.000 C 300.258 330.224,287.864 322.273,277.526 327.390 " stroke="none" fill="#000000" fill-rule="evenodd"></path></g></svg>