<?xml version="1.0" standalone="no"?>
<!DOCTYPE svg PUBLIC "-//W3C//DTD SVG 20010904//EN"
 "http://www.w3.org/TR/2001/REC-SVG-20010904/DTD/svg10.dtd">
<svg version="1.0" xmlns="http://www.w3.org/2000/svg"
 width="772.000000pt" height="1280.000000pt" viewBox="0 0 772.000000 1280.000000"
 preserveAspectRatio="xMidYMid meet">
<metadata>
Created by potrace 1.15, written by Peter Selinger 2001-2017
</metadata>
<g transform="translate(0.000000,1280.000000) scale(0.100000,-0.100000)"
fill="#000000" stroke="none">
<path d="M2069 12698 c-21 -89 -24 -127 -23 -273 0 -145 5 -189 28 -300 36
-171 108 -384 254 -750 168 -422 221 -590 258 -810 13 -82 15 -141 10 -325 -3
-129 -2 -259 4 -303 23 -187 82 -366 251 -764 65 -154 119 -292 119 -305 0
-48 -40 -266 -65 -353 -38 -133 -107 -266 -163 -315 -58 -52 -153 -98 -317
-155 -71 -25 -153 -59 -181 -75 l-52 -29 -73 51 c-130 88 -230 181 -460 420
-485 506 -628 629 -854 738 -168 81 -521 180 -640 180 -65 0 -129 -30 -149
-69 -44 -85 -9 -178 226 -599 192 -343 269 -521 308 -712 26 -126 23 -244 -8
-333 -21 -58 -21 -59 -2 -95 71 -131 1 -371 -259 -890 -235 -468 -276 -648
-161 -707 38 -19 130 -19 200 1 92 26 171 42 265 54 242 30 494 124 755 282
140 85 264 175 492 356 280 223 275 220 357 237 40 8 101 15 135 15 120 0 276
-55 388 -137 l47 -34 -30 -87 c-62 -181 -112 -396 -143 -612 -44 -301 -50
-413 -50 -890 0 -459 2 -510 44 -972 53 -600 -19 -1207 -196 -1661 -79 -200
-219 -449 -328 -582 -184 -225 -386 -397 -580 -492 -103 -52 -201 -122 -283
-205 -111 -114 -144 -173 -111 -206 29 -29 108 4 251 106 45 33 181 110 302
172 378 194 606 325 830 474 358 238 635 491 835 760 28 39 45 54 50 46 16
-26 201 156 321 318 104 139 365 580 581 983 226 419 364 623 544 802 109 110
190 163 327 215 90 33 226 66 328 78 l57 6 -18 -99 c-80 -436 -184 -733 -413
-1183 -186 -365 -182 -357 -226 -468 -47 -118 -107 -308 -200 -632 -79 -274
-140 -461 -195 -595 -143 -345 -424 -763 -786 -1170 -195 -219 -308 -370 -374
-503 -27 -54 -91 -240 -84 -247 7 -7 235 200 416 379 284 280 489 512 626 710
145 209 720 1229 966 1714 45 89 83 162 84 162 5 0 -156 -733 -189 -860 -46
-177 -116 -385 -228 -675 -107 -277 -160 -398 -246 -555 -193 -351 -294 -624
-325 -878 -6 -49 -6 -52 16 -52 52 0 302 381 501 762 109 207 184 389 280 678
106 316 180 525 387 1080 452 1217 622 1785 726 2432 16 104 18 107 47 118 17
5 63 30 102 55 132 82 240 174 358 303 130 143 192 230 535 757 46 72 129 190
184 262 177 236 255 390 265 529 11 141 -41 231 -191 329 -263 170 -474 378
-813 800 -378 472 -337 432 -767 754 -488 365 -631 486 -816 686 -36 39 -173
163 -305 276 -132 113 -292 260 -355 326 -101 106 -142 158 -267 338 -15 22
-41 74 -59 115 -215 517 -698 1113 -1374 1699 -260 226 -623 501 -660 501 -13
0 -22 -23 -41 -102z"/>
</g>
</svg>
