<svg id="svg" xmlns="http://www.w3.org/2000/svg" xmlns:xlink="http://www.w3.org/1999/xlink" width="400" height="400" viewBox="0, 0, 400,400"><g id="svgg"><path id="path0" d="M93.750 37.500 L 93.750 50.000 106.250 50.000 L 118.750 50.000 118.750 37.500 L 118.750 25.000 106.250 25.000 L 93.750 25.000 93.750 37.500 M131.250 37.500 L 131.250 50.000 143.750 50.000 L 156.250 50.000 156.250 37.500 L 156.250 25.000 143.750 25.000 L 131.250 25.000 131.250 37.500 M168.750 37.500 L 168.750 50.000 181.250 50.000 L 193.750 50.000 193.750 37.500 L 193.750 25.000 181.250 25.000 L 168.750 25.000 168.750 37.500 M206.250 37.500 L 206.250 50.000 218.750 50.000 L 231.250 50.000 231.250 37.500 L 231.250 25.000 218.750 25.000 L 206.250 25.000 206.250 37.500 M243.750 37.500 L 243.750 50.000 256.250 50.000 L 268.750 50.000 268.750 37.500 L 268.750 25.000 256.250 25.000 L 243.750 25.000 243.750 37.500 M281.250 37.500 L 281.250 50.000 293.750 50.000 L 306.250 50.000 306.250 37.500 L 306.250 25.000 293.750 25.000 L 281.250 25.000 281.250 37.500 M98.037 63.474 C 95.957 69.243,94.359 79.235,93.977 88.867 L 93.535 100.000 200.000 100.000 L 306.465 100.000 306.023 88.867 C 305.713 81.069,305.031 75.511,303.745 70.313 L 301.910 62.891 200.150 62.692 C 119.146 62.535,98.319 62.694,98.037 63.474 M93.750 206.250 L 93.750 300.000 160.192 300.000 L 226.633 300.000 226.012 297.070 C 224.629 290.550,225.302 285.083,228.298 278.512 C 229.864 275.077,231.364 270.928,231.632 269.292 C 232.243 265.560,234.467 263.281,237.500 263.281 C 243.875 263.281,244.829 270.599,239.844 281.250 C 236.413 288.579,236.120 290.933,237.964 296.345 L 239.209 300.000 245.421 300.000 L 251.633 300.000 251.012 297.070 C 249.609 290.453,250.295 285.034,253.351 278.598 C 257.832 269.164,257.395 265.169,250.825 255.469 C 248.064 251.391,247.792 248.302,250.000 246.094 C 253.314 242.779,256.934 244.104,261.026 250.130 C 269.230 262.211,270.170 269.871,264.844 281.250 C 261.413 288.579,261.120 290.933,262.964 296.345 L 264.209 300.000 270.421 300.000 L 276.633 300.000 276.012 297.070 C 274.629 290.550,275.302 285.083,278.298 278.512 C 279.864 275.077,281.364 270.928,281.632 269.292 C 282.243 265.560,284.467 263.281,287.500 263.281 C 293.875 263.281,294.829 270.599,289.844 281.250 C 286.413 288.579,286.120 290.933,287.964 296.345 L 289.209 300.000 297.730 300.000 L 306.250 300.000 306.250 206.250 L 306.250 112.500 200.000 112.500 L 93.750 112.500 93.750 206.250 M146.563 128.438 C 152.072 133.947,148.386 142.969,140.625 142.969 C 137.935 142.969,136.865 142.490,134.688 140.313 C 132.510 138.135,132.031 137.065,132.031 134.375 C 132.031 131.685,132.510 130.615,134.688 128.438 C 136.865 126.260,137.935 125.781,140.625 125.781 C 143.315 125.781,144.385 126.260,146.563 128.438 M215.379 139.980 C 217.997 142.439,216.443 152.386,212.103 160.951 L 210.236 164.634 215.158 165.966 C 221.964 167.808,231.194 171.927,237.016 175.721 C 243.212 179.757,242.339 179.969,249.604 172.662 C 256.887 165.336,260.252 163.548,268.068 162.849 C 288.434 161.028,297.555 172.242,290.314 190.201 C 288.766 194.039,287.500 198.448,287.500 200.000 C 287.500 201.552,288.766 205.961,290.314 209.799 C 297.531 227.699,288.417 238.970,268.186 237.162 C 260.161 236.445,257.528 235.058,249.762 227.458 L 242.881 220.725 240.386 222.213 C 229.667 228.604,225.312 230.729,218.324 232.971 L 210.324 235.539 212.146 239.135 C 213.937 242.669,217.188 254.008,217.188 256.720 C 217.188 261.641,212.840 262.528,200.695 260.088 C 185.279 256.990,175.709 250.417,170.000 239.006 L 167.164 233.337 157.996 228.821 C 144.340 222.094,124.219 204.925,124.219 200.000 C 124.219 195.075,144.340 177.906,157.996 171.179 L 167.164 166.663 170.000 160.994 C 175.578 149.845,184.620 143.386,199.054 140.240 C 209.975 137.859,213.069 137.810,215.379 139.980 M127.813 153.438 C 133.322 158.947,129.636 167.969,121.875 167.969 C 119.185 167.969,118.115 167.490,115.938 165.313 C 113.760 163.135,113.281 162.065,113.281 159.375 C 113.281 156.685,113.760 155.615,115.938 153.438 C 118.115 151.260,119.185 150.781,121.875 150.781 C 124.565 150.781,125.635 151.260,127.813 153.438 M196.875 152.678 C 190.774 154.371,184.605 158.370,182.752 161.832 C 181.125 164.871,196.364 163.710,198.716 160.616 C 204.863 152.528,204.412 150.586,196.875 152.678 M184.789 176.367 C 187.797 183.450,188.552 188.192,188.552 200.000 C 188.552 211.808,187.797 216.550,184.789 223.633 C 182.811 228.289,212.341 224.076,224.568 217.958 C 231.043 214.718,250.781 201.205,250.781 200.012 C 250.781 197.918,226.338 182.256,218.450 179.296 C 207.036 175.013,183.338 172.951,184.789 176.367 M257.951 180.720 L 252.269 186.440 257.141 189.858 C 270.571 199.278,270.571 200.722,257.141 210.142 L 252.269 213.560 257.951 219.280 L 263.633 225.000 271.504 225.000 C 282.632 225.000,283.446 223.393,278.516 211.165 C 276.521 206.219,275.781 203.198,275.781 200.000 C 275.781 196.802,276.521 193.781,278.516 188.835 C 283.446 176.607,282.632 175.000,271.504 175.000 L 263.633 175.000 257.951 180.720 M169.523 178.508 C 160.477 181.702,150.133 188.341,143.359 195.300 L 138.672 200.116 144.997 206.113 C 152.957 213.658,170.330 223.704,172.790 222.183 C 178.087 218.909,178.131 180.928,172.841 177.872 C 172.525 177.689,171.031 177.975,169.523 178.508 M209.994 183.811 C 215.993 190.198,215.888 210.655,209.826 216.350 C 207.312 218.712,203.433 218.310,201.321 215.469 L 199.754 213.361 201.440 208.226 C 203.504 201.937,203.536 197.797,201.563 192.188 C 199.660 186.778,199.661 186.579,201.619 184.090 C 203.725 181.413,207.619 181.283,209.994 183.811 M166.727 195.372 C 172.381 202.092,163.720 210.898,156.806 205.459 C 154.174 203.389,153.464 199.997,155.029 196.971 C 157.505 192.182,163.369 191.381,166.727 195.372 M182.752 238.168 C 185.233 242.803,200.607 250.435,202.882 248.160 C 203.537 247.504,201.688 243.376,199.199 239.940 L 197.051 236.975 189.498 236.818 C 182.257 236.667,181.978 236.723,182.752 238.168 M93.750 318.750 L 93.750 325.000 200.000 325.000 L 306.250 325.000 306.250 318.750 L 306.250 312.500 200.000 312.500 L 93.750 312.500 93.750 318.750 M93.750 353.594 L 93.750 369.688 96.406 372.344 L 99.063 375.000 200.000 375.000 L 300.937 375.000 303.594 372.344 L 306.250 369.688 306.250 353.594 L 306.250 337.500 200.000 337.500 L 93.750 337.500 93.750 353.594 " stroke="none" fill="#000000" fill-rule="evenodd"></path></g></svg>