<svg id="svg" xmlns="http://www.w3.org/2000/svg" xmlns:xlink="http://www.w3.org/1999/xlink" width="400" height="481.0126582278481" viewBox="0, 0, 400,481.0126582278481"><g id="svgg"><path id="path0" d="M234.196 27.259 C 170.910 38.707,130.366 136.462,167.808 187.324 L 173.433 194.964 121.962 278.811 C 37.477 416.441,28.791 430.829,27.607 435.107 C 22.668 452.955,49.455 467.847,64.795 455.780 C 66.719 454.267,92.124 406.250,131.733 329.267 C 187.770 220.352,195.818 205.378,197.602 206.710 C 198.720 207.545,202.423 210.358,205.830 212.963 C 214.893 219.889,232.234 228.020,253.797 235.455 C 287.337 247.019,298.176 253.592,316.528 273.496 C 333.659 292.077,343.630 296.689,356.248 291.870 C 386.727 280.230,388.113 214.270,359.438 140.031 C 349.740 114.924,329.527 78.560,326.358 80.518 C 325.472 81.066,325.276 80.837,325.843 79.918 C 328.341 75.877,292.273 39.234,279.402 32.737 C 266.169 26.057,251.000 24.219,234.196 27.259 M257.977 40.391 C 259.146 41.045,257.872 42.048,253.981 43.533 C 246.623 46.343,234.449 54.226,227.323 60.795 L 221.724 65.956 211.888 61.008 L 202.053 56.059 207.672 51.962 C 223.659 40.308,247.874 34.737,257.977 40.391 M269.397 44.823 C 276.951 48.652,285.334 57.650,289.319 66.209 C 293.332 74.828,293.244 75.470,287.658 78.322 C 285.047 79.655,279.308 83.400,274.904 86.644 L 266.897 92.541 255.284 85.053 C 248.897 80.934,239.231 75.142,233.804 72.181 C 228.377 69.220,224.105 66.373,224.310 65.854 C 225.888 61.865,243.457 49.747,255.020 44.671 C 262.956 41.188,262.206 41.180,269.397 44.823 M323.922 81.218 C 333.070 99.904,335.337 118.584,330.849 138.314 L 328.787 147.381 320.983 139.197 C 316.690 134.695,312.064 130.189,310.703 129.183 C 309.342 128.176,311.086 130.455,314.580 134.246 C 318.074 138.037,322.515 142.908,324.450 145.069 L 327.968 148.998 322.798 158.993 C 315.108 173.857,315.525 173.689,306.111 165.699 C 301.706 161.959,297.889 158.774,297.630 158.620 C 297.370 158.466,299.150 153.330,301.585 147.208 C 314.733 114.145,315.936 81.697,304.860 58.861 C 302.496 53.987,302.711 54.114,310.579 62.230 C 316.257 68.087,320.333 73.887,323.922 81.218 M211.028 62.055 C 215.670 64.160,219.685 66.098,219.949 66.362 C 220.213 66.627,217.927 70.242,214.868 74.397 C 211.809 78.552,207.355 85.870,204.970 90.659 C 202.585 95.449,200.535 99.559,200.416 99.795 C 199.980 100.656,178.481 93.116,178.481 92.102 C 178.481 86.783,197.822 58.228,201.425 58.228 C 202.064 58.228,206.386 59.950,211.028 62.055 M237.762 76.125 C 245.189 80.400,254.521 86.103,258.499 88.800 L 265.731 93.703 259.972 99.011 C 256.805 101.931,251.380 108.130,247.917 112.788 L 241.620 121.255 230.620 115.288 C 224.570 112.006,215.791 107.651,211.110 105.610 C 206.429 103.569,202.584 101.172,202.566 100.285 C 202.456 95.102,219.506 68.354,222.919 68.354 C 223.656 68.354,230.336 71.851,237.762 76.125 M294.364 85.574 C 295.158 92.987,294.309 109.910,293.081 111.138 C 292.827 111.392,287.164 107.500,280.497 102.489 L 268.375 93.378 273.941 89.127 C 279.745 84.696,291.152 77.480,292.621 77.312 C 293.088 77.259,293.872 80.976,294.364 85.574 M335.289 94.171 C 338.906 100.070,345.405 112.197,349.731 121.120 L 357.595 137.342 357.401 155.063 C 357.284 165.834,356.513 175.242,355.436 179.050 L 353.665 185.315 348.982 176.941 C 346.406 172.335,340.900 163.983,336.746 158.380 L 329.193 148.194 331.022 143.011 C 336.130 128.534,335.682 107.715,329.905 91.103 C 326.086 80.123,326.989 80.637,335.289 94.171 M188.920 98.205 C 194.318 100.003,198.734 101.988,198.734 102.616 C 198.734 103.245,197.271 108.752,195.483 114.854 C 193.602 121.273,191.923 130.884,191.499 137.658 C 191.097 144.098,190.506 149.367,190.187 149.367 C 189.867 149.367,186.391 148.572,182.461 147.601 C 178.532 146.629,173.750 145.479,171.835 145.045 C 166.105 143.746,166.823 127.444,173.637 104.114 C 176.704 93.617,175.982 93.896,188.920 98.205 M279.920 103.956 C 286.439 108.916,292.020 113.198,292.322 113.472 C 294.180 115.151,283.163 145.570,280.698 145.570 C 279.958 145.570,277.590 144.227,275.436 142.586 C 273.282 140.945,265.125 135.599,257.311 130.706 L 243.103 121.809 247.017 116.284 C 251.194 110.387,265.820 94.937,267.225 94.937 C 267.688 94.937,273.401 98.995,279.920 103.956 M228.165 115.501 C 234.953 119.039,240.506 122.346,240.506 122.850 C 240.506 123.354,238.765 127.488,236.636 132.037 C 234.507 136.586,231.814 144.913,230.650 150.542 C 229.474 156.226,227.959 160.558,227.241 160.285 C 226.531 160.014,218.335 157.589,209.029 154.896 L 192.109 150.000 192.824 138.608 C 193.464 128.419,196.246 115.571,199.883 106.005 L 201.167 102.627 208.495 105.848 C 212.525 107.619,221.377 111.963,228.165 115.501 M245.969 125.483 C 252.865 129.054,279.747 147.251,279.747 148.347 C 279.747 158.900,234.564 196.814,231.424 188.895 C 230.369 186.234,230.086 163.291,231.108 163.291 C 231.509 163.291,237.812 165.627,245.115 168.483 C 252.418 171.338,258.673 173.394,259.016 173.052 C 259.565 172.503,249.551 168.381,235.089 163.203 L 230.305 161.490 231.141 155.745 C 232.721 144.889,240.199 124.051,242.514 124.051 C 242.894 124.051,244.449 124.695,245.969 125.483 M182.911 149.269 L 190.506 151.302 191.360 159.021 C 192.486 169.200,194.507 176.452,198.315 183.965 C 202.246 191.724,201.815 192.072,193.268 188.029 C 181.400 182.414,173.223 170.803,169.785 154.685 C 167.550 144.204,166.147 144.783,182.911 149.269 M370.450 180.358 C 373.864 197.180,370.987 228.967,367.196 216.314 C 366.294 213.306,363.118 205.344,360.137 198.621 L 354.718 186.398 356.489 179.591 C 357.462 175.848,358.573 168.797,358.957 163.924 C 360.220 147.871,360.654 147.538,364.731 159.494 C 366.749 165.411,369.322 174.800,370.450 180.358 M335.875 159.810 C 339.627 164.858,345.072 173.042,347.976 177.997 L 353.254 187.007 350.684 193.820 C 349.270 197.567,347.034 202.260,345.715 204.249 L 343.316 207.866 338.193 200.321 C 335.375 196.172,329.331 188.703,324.763 183.725 C 315.008 173.096,315.442 174.953,320.629 166.036 C 322.924 162.090,325.557 157.009,326.479 154.747 C 328.617 149.500,327.940 149.135,335.875 159.810 M211.082 156.962 C 220.309 159.747,228.061 162.025,228.308 162.025 C 228.555 162.025,228.815 167.490,228.888 174.169 C 228.960 180.849,229.349 187.353,229.752 188.624 C 230.552 191.146,229.467 191.674,220.675 193.039 C 208.733 194.893,204.246 193.004,200.037 184.351 C 194.179 172.311,189.976 151.898,193.354 151.899 C 193.877 151.899,201.854 154.177,211.082 156.962 M305.229 166.591 L 313.904 173.688 311.387 177.223 C 310.003 179.167,306.398 183.488,303.376 186.825 L 297.883 192.894 289.131 187.413 C 284.318 184.399,280.183 181.767,279.942 181.563 C 279.702 181.359,282.464 177.637,286.081 173.290 C 289.698 168.944,293.262 164.062,294.000 162.441 C 295.750 158.600,295.224 158.406,305.229 166.591 M323.753 184.494 C 342.889 206.128,344.002 209.283,335.503 217.782 C 327.712 225.573,328.311 225.639,320.690 216.139 C 317.200 211.788,310.939 205.095,306.778 201.266 L 299.212 194.304 306.856 185.127 C 316.077 174.057,314.571 174.114,323.753 184.494 M292.986 191.628 L 296.634 194.536 289.773 199.964 C 285.999 202.950,279.494 207.070,275.316 209.119 L 267.722 212.846 254.754 208.476 L 241.786 204.106 252.222 199.075 C 257.962 196.307,266.076 191.441,270.253 188.261 L 277.848 182.480 283.593 185.599 C 286.753 187.315,290.980 190.028,292.986 191.628 M357.058 195.125 C 368.343 217.245,369.762 226.455,363.721 238.375 C 360.089 245.544,359.653 245.314,355.765 234.177 C 354.184 229.652,351.004 222.349,348.696 217.948 L 344.501 209.947 349.149 199.968 C 354.657 188.143,353.773 188.685,357.058 195.125 M319.124 216.838 C 326.826 225.973,326.842 225.781,318.038 230.196 C 306.020 236.224,306.540 236.269,294.702 228.194 C 288.809 224.175,281.040 219.507,277.437 217.822 C 269.383 214.054,269.383 214.082,277.535 209.810 C 281.188 207.896,287.310 203.805,291.139 200.719 L 298.101 195.109 305.516 202.301 C 309.594 206.257,315.718 212.799,319.124 216.838 M378.439 225.218 C 380.024 241.778,379.360 251.413,375.782 263.741 C 372.763 274.145,371.627 274.192,373.541 263.835 C 375.020 255.835,374.244 242.511,371.648 231.345 C 370.693 227.237,370.490 223.162,371.126 220.857 C 371.698 218.785,372.563 211.962,373.050 205.696 L 373.935 194.304 375.495 202.532 C 376.353 207.057,377.677 217.266,378.439 225.218 M252.532 209.368 C 266.911 214.151,266.664 214.912,249.788 217.851 C 231.864 220.973,214.013 218.055,205.270 210.576 L 201.045 206.962 213.643 207.359 C 220.572 207.577,228.169 207.201,230.526 206.524 C 237.143 204.621,238.970 204.857,252.532 209.368 M348.488 220.921 C 350.867 225.775,354.096 233.647,355.664 238.413 L 358.515 247.079 353.045 252.654 C 346.001 259.831,345.525 259.735,341.417 250.316 C 339.519 245.965,335.794 238.798,333.140 234.390 L 328.315 226.375 335.975 218.971 C 340.188 214.899,343.754 211.686,343.899 211.831 C 344.044 211.977,346.109 216.067,348.488 220.921 M277.578 219.611 C 286.612 224.247,300.587 233.320,301.855 235.373 C 303.066 237.332,293.982 238.616,279.747 238.496 C 265.600 238.376,243.809 232.133,225.861 223.058 L 218.983 219.580 232.593 219.964 C 242.896 220.254,248.509 219.755,255.696 217.908 C 268.405 214.642,267.805 214.595,277.578 219.611 M333.693 238.608 C 339.621 249.462,343.758 259.195,342.836 260.117 C 342.525 260.429,339.169 261.478,335.379 262.448 L 328.488 264.211 323.819 257.106 C 321.251 253.197,316.313 247.163,312.845 243.695 L 306.542 237.390 315.613 232.753 C 327.328 226.764,327.202 226.723,333.693 238.608 M371.519 251.899 C 371.519 269.721,371.410 270.473,367.748 277.848 L 363.976 285.443 363.676 278.481 C 363.512 274.652,362.742 266.108,361.967 259.494 L 360.558 247.468 364.456 240.061 C 366.600 235.987,368.372 231.715,368.393 230.568 C 368.424 228.861,368.713 228.942,369.975 231.013 C 371.002 232.697,371.519 239.687,371.519 251.899 M312.079 244.620 C 315.371 248.275,319.989 254.114,322.341 257.595 L 326.619 263.924 319.009 264.301 C 311.528 264.671,311.266 264.569,303.485 258.232 C 299.131 254.687,290.528 249.249,284.365 246.147 L 273.160 240.506 281.833 240.433 C 286.603 240.393,292.785 239.889,295.570 239.313 C 304.936 237.376,305.808 237.656,312.079 244.620 M361.563 269.764 C 362.615 285.305,361.868 288.273,356.325 290.590 C 350.405 293.063,350.642 293.288,350.560 285.127 C 350.520 281.123,349.443 273.861,348.167 268.987 C 346.073 260.994,346.040 260.015,347.831 258.989 C 348.922 258.363,351.850 255.981,354.338 253.695 L 358.861 249.540 359.800 253.567 C 360.317 255.782,361.110 263.071,361.563 269.764 M347.066 270.892 C 353.476 295.651,342.769 300.717,333.701 277.215 C 329.110 265.316,329.060 265.696,335.443 263.917 C 344.194 261.479,344.708 261.788,347.066 270.892 M330.224 272.070 C 331.702 275.506,332.911 278.790,332.911 279.367 C 332.911 279.945,334.063 282.566,335.471 285.192 L 338.030 289.967 333.975 287.870 C 329.669 285.643,319.716 275.977,315.201 269.636 L 312.486 265.823 320.011 265.823 L 327.536 265.823 330.224 272.070 " stroke="none" fill="#000000" fill-rule="evenodd"></path></g></svg>